<?xml version="1.0" encoding="UTF-8"?>
<svg width="514.7" height="519.2" version="1.1" viewBox="0 0 514.69604 519.20264" xmlns="http://www.w3.org/2000/svg">
 <g transform="translate(.0027382 -988.17)">
  <g transform="matrix(8.0422 0 0 8.0449 .026242 -6961.6)">
   <g transform="matrix(.31048 0 0 .31048 -120.09 904.36)">
    <rect x="573.43" y="298.45" width="18.075" height="39.695" fill="#b6abab" stroke="#484848" stroke-linecap="round" stroke-linejoin="round" stroke-width="2.8068"/>
    <rect x="568.25" y="299.86" width="21.928" height="9.1222" ry="0" fill="#c0bdbd"/>
    <rect x="568.18" y="327.62" width="21.928" height="9.1222" ry="0" opacity=".35"/>
    <rect x="573.43" y="298.45" width="18.075" height="39.695" fill="none" stroke="#484848" stroke-linecap="round" stroke-linejoin="round" stroke-width="2.8068"/>
   </g>
   <g transform="matrix(.31048 0 0 .31048 -120.09 906.32)">
    <rect x="388.18" y="298.45" width="18.075" height="39.695" fill="#b6abab" stroke="#484848" stroke-linecap="round" stroke-linejoin="round" stroke-width="2.8068"/>
    <rect x="389.29" y="299.73" width="21.928" height="9.1222" ry="0" fill="#c0bdbd"/>
    <rect x="389.64" y="327.8" width="21.928" height="9.1222" ry="0" opacity=".35"/>
    <rect x="388.18" y="298.45" width="18.075" height="39.695" fill="none" stroke="#484848" stroke-linecap="round" stroke-linejoin="round" stroke-width="2.8068"/>
   </g>
   <rect transform="matrix(.31048 0 0 .55808 -120.09 836.21)" x="404.89" y="273.69" width="169.31" height="87.084" fill="#86ab84" stroke="#484848" stroke-linecap="round" stroke-linejoin="round" stroke-width="2.8068"/>
   <path transform="matrix(.31048 0 0 .55808 -120.09 836.21)" d="m549.65 274.74h23.445v92.503h-23.445c6.7733-30.834 10.804-61.669 0-92.503z" opacity=".32846"/>
   <path transform="matrix(.31048 0 0 .55808 -120.09 836.21)" d="m407.67 320.78 1.4177-42.884 74.073-1.0632-67.694 6.3795-7.7972 37.568z" fill="#9bbf9a"/>
   <g transform="matrix(.39708 0 0 .39708 -161.66 883.41)">
    <ellipse transform="matrix(1.8179,0,0,1.6993,-163.5,-131.52)" cx="342.69" cy="256.11" rx="10.859" ry="11.617" fill="#fff" stroke="#484848" stroke-width="2.8657"/>
    <ellipse transform="matrix(1.5005,0,0,1.8381,-55.292,-159.64)" cx="343.07" cy="252.07" rx="6.1872" ry="5.0508" fill="#292929"/>
   </g>
   <g transform="matrix(.49234 0 0 .49234 -214.42 854.67)">
    <ellipse transform="matrix(1.8179,0,0,1.6993,-104.31,-132.59)" cx="342.69" cy="256.11" rx="10.859" ry="11.617" fill="#fff" stroke="#484848" stroke-width="2.3112"/>
    <ellipse transform="matrix(.90136 0 0 1.1042 209.44 24.306)" cx="343.07" cy="252.07" rx="6.1872" ry="5.0508" fill="#292929"/>
   </g>
   <g transform="matrix(.31048 0 0 .72239 -120.09 783.39)">
    <path d="m401.18 323.99h22.178l20.764 23.015h88.713l23.592-23.015h22.178v47.447h-177.43v-47.447z" fill="#86ab84" stroke="#484848" stroke-linecap="round" stroke-linejoin="round" stroke-width="2.7478"/>
    <path d="m403.88 334.9 0.12875 34.02 59.311 0.0556-53.944-5.3373-5.4962-28.739 4e-5 -3e-5z" fill="#9bbf9a"/>
    <g stroke="#484848" stroke-linecap="round" stroke-linejoin="round" stroke-width="2.1115px">
     <path d="m443.78 287.78-30.782 8.9072" fill="#484848" fill-rule="evenodd"/>
     <path d="m413.3 292.23 8.3812 4.9121" fill="none"/>
     <path d="m421.16 290.32 8.3812 4.9121" fill="none"/>
     <path d="m428.47 287.83 8.3812 4.9121" fill="none"/>
     <path d="m435.94 286.98 8.3812 4.9121" fill="none"/>
    </g>
    <g transform="matrix(-1.0834 0 0 1.2177 989.64 5.3819)">
     <g stroke="#484848" stroke-linecap="round" stroke-linejoin="round" stroke-width="2.1115px">
      <path d="m430.1 287.03-30.782 8.9072" fill="#484848" fill-rule="evenodd"/>
      <path d="m399.62 291.49 8.3812 4.9121" fill="none"/>
      <path d="m407.48 289.57 8.3812 4.9121" fill="none"/>
      <path d="m414.79 287.08 8.3812 4.9121" fill="none"/>
      <path d="m422.26 286.23 8.3812 4.9121" fill="none"/>
     </g>
    </g>
    <path d="m577.44 325.13-8e-3 45.4h-34.479l0.58699-32.69 12.423-12.94z" opacity=".32846"/>
   </g>
  </g>
 </g>
</svg>
